<svg
  xmlns="http://www.w3.org/2000/svg"
  xmlns:xlink="http://www.w3.org/1999/xlink"
  viewBox="0 0 350 330"
>
  <g>
    <g id="board" transform-origin="50% 90%">
      <animateTransform
        attributeName="transform"
        type="translate"
        values="0 0; 0 -23; 0 0"
        dur="3s"
        repeatCount="indefinite"
      />
      <animateTransform
        attributeName="transform"
        type="scale"
        values="1 1; 1 0.7; 1 1"
        dur="3s"
        additive="sum"
        repeatCount="indefinite"
      />
      <path
        d="M175.44,249.28h48.36a13.27,13.27,0,0,0,13-10.65l3.74-18.32H172.36v25.89A3.09,3.09,0,0,0,175.44,249.28Z"
        fill="none"
        stroke="#fff"
        stroke-linecap="round"
        stroke-linejoin="round"
        stroke-width="2"
      />
      <path
        d="M235.79,241.69h-9.22a8.31,8.31,0,0,1-8.28-8.31V220.31"
        fill="none"
        stroke="#fff"
        stroke-linecap="round"
        stroke-miterlimit="10"
        stroke-width="2"
      />
      <path
        d="M204.25,231.88h-2.05a3.45,3.45,0,0,0-3.43,3.45v2.92a3.45,3.45,0,0,0,3.43,3.45h2.05a3.45,3.45,0,0,0,3.43-3.45v-2.92A3.44,3.44,0,0,0,204.25,231.88Z"
        fill="none"
        stroke="#fff"
        stroke-linecap="round"
        stroke-linejoin="round"
        stroke-width="2"
      />
      <path
        d="M185.64,231.88h-2.05a3.45,3.45,0,0,0-3.43,3.45v2.92a3.45,3.45,0,0,0,3.43,3.45h2.05a3.45,3.45,0,0,0,3.43-3.45v-2.92A3.45,3.45,0,0,0,185.64,231.88Z"
        fill="none"
        stroke="#fff"
        stroke-linecap="round"
        stroke-linejoin="round"
        stroke-width="2"
      />
    </g>

    <g id="rearWings" transform="0 3">
      <animateTransform
        attributeName="transform"
        type="translate"
        values="0 3; 0 -3; 0 3"
        dur="3s"
        repeatCount="indefinite"
      />
      <path
        d="M123.23,173.34h9.16a3.29,3.29,0,0,1,3.29,3.3v5.71a3.29,3.29,0,0,1-3.29,3.3H115.57a1.32,1.32,0,0,1-1.32-1.32v-2a9,9,0,0,1,9-9"
        fill="#068e4d"
      />
      <path
        d="M123.23,173.34h9.16a3.29,3.29,0,0,1,3.29,3.3v5.71a3.29,3.29,0,0,1-3.29,3.3H115.57a1.32,1.32,0,0,1-1.32-1.32v-2A9,9,0,0,1,123.23,173.34Z"
        fill="none"
        stroke="#fff"
        stroke-linecap="round"
        stroke-linejoin="round"
        stroke-width="2"
      />
      <path
        d="M123.23,207.39h9.16a3.29,3.29,0,0,0,3.29-3.3v-5.71a3.29,3.29,0,0,0-3.29-3.3H115.57a1.32,1.32,0,0,0-1.32,1.32v2a9,9,0,0,0,9,9"
        fill="#068e4d"
      />
      <path
        d="M123.23,207.39h9.16a3.29,3.29,0,0,0,3.29-3.3v-5.71a3.29,3.29,0,0,0-3.29-3.3H115.57a1.32,1.32,0,0,0-1.32,1.32v2A9,9,0,0,0,123.23,207.39Z"
        fill="none"
        stroke="#fff"
        stroke-linecap="round"
        stroke-linejoin="round"
        stroke-width="2"
      />
    </g>
    <path
      d="M205,227.08c43.38,0,74.86-15.55,74.86-37s-31.48-37-74.86-37c-27.94,0-55.36,13.53-73.46,24.87a14.3,14.3,0,0,0,0,24.21c18.09,11.33,45.52,24.87,73.46,24.87"
      fill="#068e4d"
    />
    <path
      d="M132.18,195.12c16.74,4.27,44.58,10,72.81,10,44.14,0,72.75-6.32,73.6-14.18-0.86,19.34-29.45,34.86-73.6,34.86-28.23,0-56.07-14.19-72.81-24.68a12.88,12.88,0,0,1-6-10.18c0.26,1.61,2.26,3.18,6,4.14"
      fill="#068e4d"
    />
    <path
      id="body-app"
      d="m 205 197 C 182 197 168 197 157 196 C 147 192 125 195 126 190 a 12.93 12.93 0 0 1 6.18 -11 c 15.82 -12 43.82 -26 72.81 -24.68 c 44.01 -2.32 76.01 14.68 75.01 36.68 c -3 1 -3 1 -4 1 C 270 195 251 196 206 197"
      fill="#36e69a"
    >
      <animate
        attributeName="d"
        values="m 205 197 C 182 197 168 197 157 196 C 147 192 125 195 126 190 a 12.93 12.93 0 0 1 6.18 -11 c 15.82 -12 43.82 -26 72.81 -24.68 c 44.01 -2.32 76.01 14.68 75.01 36.68 c -3 1 -3 1 -4 1 C 270 195 251 196 206 197;
        M 206 199 C 182 200 170 200 157 201 C 138 198 125 200 126 190 a 12.93 12.93 0 0 1 6.18 -11 c 15.82 -12 43.82 -26 72.81 -24.68 c 44.01 -2.32 76.01 14.68 75.01 40.68 c -3 1 -3 1 -6 1 C 269 198 251 198 206 199;
        m 205 197 C 182 197 168 197 157 196 C 147 192 125 195 126 190 a 12.93 12.93 0 0 1 6.18 -11 c 15.82 -12 43.82 -26 72.81 -24.68 c 44.01 -2.32 76.01 14.68 75.01 36.68 c -3 1 -3 1 -4 1 C 270 195 251 196 206 197"
        dur="3s"
        repeatCount="indefinite"
      />
    </path>

    <path
      id="body-shadow"
      transform-origin="center"
      d="M132.18,186.12c16.74-4.27,44.58-10,72.81-10,44.53,0,73.26,6.43,73.61,14.38,0,0.17,0,.34,0,0.51-0.85,7.86-29.45,14.17-73.6,14.17-28.23,0-56.07-5.76-72.81-10-3.79-1-5.79-2.53-6-4.13l0-.51c0.13-1.69,2.15-3.36,6.1-4.37"
      fill="#25b774"
    >
      <animate
        attributeName="d"
        values="M132.18,186.12c16.74-4.27,44.58-10,72.81-10,44.53,0,73.26,6.43,73.61,14.38,0,0.17,0,.34,0,0.51-0.85,7.86-29.45,14.17-73.6,14.17-28.23,0-56.07-5.76-72.81-10-3.79-1-5.79-2.53-6-4.13l0-.51c0.13-1.69,2.15-3.36,6.1-4.37;
        M 132 186 c 15.82 -4.12 44.82 -6.12 72.82 -6.12 c 33 0 67.18 1.12 73.61 8.38 c 0 0.17 0 0.34 0 0.51 c 0.4 12.99 -52.61 14.11 -73.61 15.11 c -17 0 -64 -5 -73 -7 c -4 -1 -6 -2 -6 -4.13 l 0.18 -2.75 c 1 -2 3 -3 6 -4;
        M132.18,186.12c16.74-4.27,44.58-10,72.81-10,44.53,0,73.26,6.43,73.61,14.38,0,0.17,0,.34,0,0.51-0.85,7.86-29.45,14.17-73.6,14.17-28.23,0-56.07-5.76-72.81-10-3.79-1-5.79-2.53-6-4.13l0-.51c0.13-1.69,2.15-3.36,6.1-4.37"
        dur="3s"
        repeatCount="indefinite"
      />
      <animateTransform
        attributeName="transform"
        type="translate"
        values="0 0; 0 6; 0 0"
        dur="3s"
        additive="sum"
        repeatCount="indefinite"
      />
    </path>
    <path
      d="M205,227.08c43.38,0,74.86-15.55,74.86-37s-31.48-37-74.86-37c-27.94,0-55.36,13.53-73.46,24.87a14.3,14.3,0,0,0,0,24.21C149.63,213.54,177.06,227.08,205,227.08Z"
      fill="none"
      stroke="#fff"
      stroke-width="2"
    />

    <g id="frontWings" transform="0 -3">
      <animateTransform
        attributeName="transform"
        type="translate"
        values="0 -3; 0 3; 0 -3"
        dur="3s"
        repeatCount="indefinite"
      />
      <path
        d="M123.23,173.34h9.16a3.29,3.29,0,0,1,3.29,3.3v5.71a3.29,3.29,0,0,1-3.29,3.3H115.57a1.32,1.32,0,0,1-1.32-1.32v-2a9,9,0,0,1,9-9"
        fill="#068e4d"
      />
      <path
        d="M123.23,207.39h9.16a3.29,3.29,0,0,0,3.29-3.3v-5.71a3.29,3.29,0,0,0-3.29-3.3H115.57a1.32,1.32,0,0,0-1.32,1.32v2a9,9,0,0,0,9,9"
        fill="#068e4d"
      />
      <path
        d="M123.23,173.34h9.16a3.29,3.29,0,0,1,3.29,3.3v5.71a3.29,3.29,0,0,1-3.29,3.3H115.57a1.32,1.32,0,0,1-1.32-1.32v-2A9,9,0,0,1,123.23,173.34Z"
        fill="none"
        stroke="#fff"
        stroke-linecap="round"
        stroke-linejoin="round"
        stroke-width="2"
      />
      <path
        d="M123.23,207.39h9.16a3.29,3.29,0,0,0,3.29-3.3v-5.71a3.29,3.29,0,0,0-3.29-3.3H115.57a1.32,1.32,0,0,0-1.32,1.32v2A9,9,0,0,0,123.23,207.39Z"
        fill="none"
        stroke="#fff"
        stroke-linecap="round"
        stroke-linejoin="round"
        stroke-width="2"
      />
    </g>
  </g>
  <line
    x1="68.95"
    y1="107.8"
    x2="131.86"
    y2="107.8"
    fill="none"
    stroke="#fff"
    stroke-linecap="round"
    stroke-miterlimit="10"
    stroke-width="2"
  />
  <g>
    <path
      d="M41.77,97.54H77.06a12.4,12.4,0,1,1,24.8,0h17.93"
      fill="none"
      stroke="#fff"
      stroke-linecap="round"
      stroke-miterlimit="10"
      stroke-width="2"
    />
  </g>
  <line
    x1="258.96"
    y1="93.19"
    x2="298.74"
    y2="93.19"
    fill="none"
    stroke="#fff"
    stroke-linecap="round"
    stroke-miterlimit="10"
    stroke-width="2"
  />
  <g>
    <path
      d="M278.75,82.91H251.39a12.4,12.4,0,1,0-24.8,0H208.65"
      fill="none"
      stroke="#fff"
      stroke-linecap="round"
      stroke-miterlimit="10"
      stroke-width="2"
    />
    <line
      x1="287.01"
      y1="82.91"
      x2="309.21"
      y2="82.91"
      fill="none"
      stroke="#fff"
      stroke-linecap="round"
      stroke-miterlimit="10"
      stroke-width="2"
    />
  </g>
  <line
    x1="106.25"
    y1="179.49"
    x2="84.05"
    y2="179.49"
    fill="none"
    stroke="#fff"
    stroke-linecap="round"
    stroke-miterlimit="10"
    stroke-width="2"
  />
  <line
    x1="106.25"
    y1="201.23"
    x2="84.05"
    y2="201.23"
    fill="none"
    stroke="#fff"
    stroke-linecap="round"
    stroke-miterlimit="10"
    stroke-width="2"
  />
  <line
    x1="106.25"
    y1="190.98"
    x2="68.77"
    y2="190.98"
    fill="none"
    stroke="#fff"
    stroke-linecap="round"
    stroke-miterlimit="10"
    stroke-width="2"
  />
  <g>
    <path
      d="M289.94,327.88H244.88L212.8,296.58a1.89,1.89,0,0,0-2.44,0l-10.2,10.23a1.72,1.72,0,0,1-2.25,0l-19-20.17a2.4,2.4,0,0,0-3.1,0l-26.42,25.64a1.71,1.71,0,0,1-2.25,0l-2.63-2.92a1.71,1.71,0,0,0-2.31,0L124.63,329H80.78"
      fill="none"
      stroke="#fff"
      stroke-linecap="round"
      stroke-miterlimit="10"
      stroke-width="2"
    />
    <path
      d="M289.94,328H200.15c-0.86,0-1.56,0-2.25,0h-19c-1.5,0-2.23,0-3.1,0h-32.3c-1.09,0-1.66,0-2.31,0H80.78"
      fill="none"
      stroke="#fff"
      stroke-linecap="round"
      stroke-miterlimit="10"
      stroke-width="2"
    />
  </g>
</svg>
