<svg
  xmlns="http://www.w3.org/2000/svg"
  xmlns:xlink="http://www.w3.org/1999/xlink"
  viewBox="0 0 350 330"
>
  <g>
    <animate
      attributeName="opacity"
      to="0"
      fill="freeze"
      begin="cloud2FadeOut.begin"
      dur="0.5s"
    />
    <g>
      <g id="board" transform-origin="50% 90%">
        <animateTransform
          attributeName="transform"
          type="translate"
          values="0 0; 0 -23; 0 0"
          dur="1.5s"
          repeatCount="indefinite"
        />
        <animateTransform
          attributeName="transform"
          type="scale"
          values="1 1; 1 0.7; 1 1"
          dur="1.5s"
          additive="sum"
          repeatCount="indefinite"
        />
        <path
          d="M175.44,249.28h48.36a13.27,13.27,0,0,0,13-10.65l3.74-18.32H172.36v25.89A3.09,3.09,0,0,0,175.44,249.28Z"
          fill="none"
          stroke="#fff"
          stroke-linecap="round"
          stroke-linejoin="round"
          stroke-width="2"
        />
        <path
          d="M235.79,241.69h-9.22a8.31,8.31,0,0,1-8.28-8.31V220.31"
          fill="none"
          stroke="#fff"
          stroke-linecap="round"
          stroke-miterlimit="10"
          stroke-width="2"
        />
        <path
          id="window"
          d="M204.25,231.88h-2.05a3.45,3.45,0,0,0-3.43,3.45v2.92a3.45,3.45,0,0,0,3.43,3.45h2.05a3.45,3.45,0,0,0,3.43-3.45v-2.92A3.44,3.44,0,0,0,204.25,231.88Z"
          fill="none"
          stroke="#fff"
          stroke-linecap="round"
          stroke-linejoin="round"
          stroke-width="2"
        >
          <animate
            attributeName="opacity"
            to="0"
            dur="0.1s"
            fill="freeze"
            begin="2.7s"
            additive="sum"
          />
        </path>
        <path
          d="M185.64,231.88h-2.05a3.45,3.45,0,0,0-3.43,3.45v2.92a3.45,3.45,0,0,0,3.43,3.45h2.05a3.45,3.45,0,0,0,3.43-3.45v-2.92A3.45,3.45,0,0,0,185.64,231.88Z"
          fill="none"
          stroke="#fff"
          stroke-linecap="round"
          stroke-linejoin="round"
          stroke-width="2"
        />
      </g>

      <g id="rearWings" transform="0 3">
        <animateTransform
          attributeName="transform"
          type="translate"
          values="0 3; 0 -3; 0 3"
          dur="1.5s"
          repeatCount="indefinite"
        />
        <path
          d="M123.23,173.34h9.16a3.29,3.29,0,0,1,3.29,3.3v5.71a3.29,3.29,0,0,1-3.29,3.3H115.57a1.32,1.32,0,0,1-1.32-1.32v-2a9,9,0,0,1,9-9"
          fill="#068e4d"
        />
        <path
          d="M123.23,173.34h9.16a3.29,3.29,0,0,1,3.29,3.3v5.71a3.29,3.29,0,0,1-3.29,3.3H115.57a1.32,1.32,0,0,1-1.32-1.32v-2A9,9,0,0,1,123.23,173.34Z"
          fill="none"
          stroke="#fff"
          stroke-linecap="round"
          stroke-linejoin="round"
          stroke-width="2"
        />
        <path
          d="M123.23,207.39h9.16a3.29,3.29,0,0,0,3.29-3.3v-5.71a3.29,3.29,0,0,0-3.29-3.3H115.57a1.32,1.32,0,0,0-1.32,1.32v2a9,9,0,0,0,9,9"
          fill="#068e4d"
        />
        <path
          d="M123.23,207.39h9.16a3.29,3.29,0,0,0,3.29-3.3v-5.71a3.29,3.29,0,0,0-3.29-3.3H115.57a1.32,1.32,0,0,0-1.32,1.32v2A9,9,0,0,0,123.23,207.39Z"
          fill="none"
          stroke="#fff"
          stroke-linecap="round"
          stroke-linejoin="round"
          stroke-width="2"
        />
      </g>
      <path
        d="M205,227.08c43.38,0,74.86-15.55,74.86-37s-31.48-37-74.86-37c-27.94,0-55.36,13.53-73.46,24.87a14.3,14.3,0,0,0,0,24.21c18.09,11.33,45.52,24.87,73.46,24.87"
        fill="#068e4d"
      />
      <path
        d="M132.18,195.12c16.74,4.27,44.58,10,72.81,10,44.14,0,72.75-6.32,73.6-14.18-0.86,19.34-29.45,34.86-73.6,34.86-28.23,0-56.07-14.19-72.81-24.68a12.88,12.88,0,0,1-6-10.18c0.26,1.61,2.26,3.18,6,4.14"
        fill="#068e4d"
      />
      <path
        id="body-app"
        d="m 205 197 C 182 197 168 197 157 196 C 147 192 125 195 126 190 a 12.93 12.93 0 0 1 6.18 -11 c 15.82 -12 43.82 -26 72.81 -24.68 c 44.01 -2.32 76.01 14.68 75.01 36.68 c -3 1 -3 1 -4 1 C 270 195 251 196 206 197"
        fill="#36e69a"
      >
        <animate
          attributeName="d"
          values="m 205 197 C 182 197 168 197 157 196 C 147 192 125 195 126 190 a 12.93 12.93 0 0 1 6.18 -11 c 15.82 -12 43.82 -26 72.81 -24.68 c 44.01 -2.32 76.01 14.68 75.01 36.68 c -3 1 -3 1 -4 1 C 270 195 251 196 206 197;
        M 206 199 C 182 200 170 200 157 201 C 138 198 125 200 126 190 a 12.93 12.93 0 0 1 6.18 -11 c 15.82 -12 43.82 -26 72.81 -24.68 c 44.01 -2.32 76.01 14.68 75.01 40.68 c -3 1 -3 1 -6 1 C 269 198 251 198 206 199;
        m 205 197 C 182 197 168 197 157 196 C 147 192 125 195 126 190 a 12.93 12.93 0 0 1 6.18 -11 c 15.82 -12 43.82 -26 72.81 -24.68 c 44.01 -2.32 76.01 14.68 75.01 36.68 c -3 1 -3 1 -4 1 C 270 195 251 196 206 197"
          dur="1.5s"
          repeatCount="indefinite"
        />
      </path>

      <path
        id="body-shadow"
        transform-origin="center"
        d="M132.18,186.12c16.74-4.27,44.58-10,72.81-10,44.53,0,73.26,6.43,73.61,14.38,0,0.17,0,.34,0,0.51-0.85,7.86-29.45,14.17-73.6,14.17-28.23,0-56.07-5.76-72.81-10-3.79-1-5.79-2.53-6-4.13l0-.51c0.13-1.69,2.15-3.36,6.1-4.37"
        fill="#25b774"
      >
        <animate
          attributeName="d"
          values="M132.18,186.12c16.74-4.27,44.58-10,72.81-10,44.53,0,73.26,6.43,73.61,14.38,0,0.17,0,.34,0,0.51-0.85,7.86-29.45,14.17-73.6,14.17-28.23,0-56.07-5.76-72.81-10-3.79-1-5.79-2.53-6-4.13l0-.51c0.13-1.69,2.15-3.36,6.1-4.37;
        M 132 186 c 15.82 -4.12 44.82 -6.12 72.82 -6.12 c 33 0 67.18 1.12 73.61 8.38 c 0 0.17 0 0.34 0 0.51 c 0.4 12.99 -52.61 14.11 -73.61 15.11 c -17 0 -64 -5 -73 -7 c -4 -1 -6 -2 -6 -4.13 l 0.18 -2.75 c 1 -2 3 -3 6 -4;
        M132.18,186.12c16.74-4.27,44.58-10,72.81-10,44.53,0,73.26,6.43,73.61,14.38,0,0.17,0,.34,0,0.51-0.85,7.86-29.45,14.17-73.6,14.17-28.23,0-56.07-5.76-72.81-10-3.79-1-5.79-2.53-6-4.13l0-.51c0.13-1.69,2.15-3.36,6.1-4.37"
          dur="1.5s"
          repeatCount="indefinite"
        />
        <animateTransform
          attributeName="transform"
          type="translate"
          values="0 0; 0 6; 0 0"
          dur="1.5s"
          additive="sum"
          repeatCount="indefinite"
        />
      </path>
      <path
        d="M205,227.08c43.38,0,74.86-15.55,74.86-37s-31.48-37-74.86-37c-27.94,0-55.36,13.53-73.46,24.87a14.3,14.3,0,0,0,0,24.21C149.63,213.54,177.06,227.08,205,227.08Z"
        fill="none"
        stroke="#fff"
        stroke-width="2"
      />

      <g id="frontWings" transform="0 -3">
        <animateTransform
          attributeName="transform"
          type="translate"
          values="0 -3; 0 3; 0 -3"
          dur="1.5s"
          repeatCount="indefinite"
        />
        <path
          d="M123.23,173.34h9.16a3.29,3.29,0,0,1,3.29,3.3v5.71a3.29,3.29,0,0,1-3.29,3.3H115.57a1.32,1.32,0,0,1-1.32-1.32v-2a9,9,0,0,1,9-9"
          fill="#068e4d"
        />
        <path
          d="M123.23,207.39h9.16a3.29,3.29,0,0,0,3.29-3.3v-5.71a3.29,3.29,0,0,0-3.29-3.3H115.57a1.32,1.32,0,0,0-1.32,1.32v2a9,9,0,0,0,9,9"
          fill="#068e4d"
        />
        <path
          d="M123.23,173.34h9.16a3.29,3.29,0,0,1,3.29,3.3v5.71a3.29,3.29,0,0,1-3.29,3.3H115.57a1.32,1.32,0,0,1-1.32-1.32v-2A9,9,0,0,1,123.23,173.34Z"
          fill="none"
          stroke="#fff"
          stroke-linecap="round"
          stroke-linejoin="round"
          stroke-width="2"
        />
        <path
          d="M123.23,207.39h9.16a3.29,3.29,0,0,0,3.29-3.3v-5.71a3.29,3.29,0,0,0-3.29-3.3H115.57a1.32,1.32,0,0,0-1.32,1.32v2A9,9,0,0,0,123.23,207.39Z"
          fill="none"
          stroke="#fff"
          stroke-linecap="round"
          stroke-linejoin="round"
          stroke-width="2"
        />
      </g>
    </g>

    <g id="cloud1">
      <animateTransform
        id="cloud1Move"
        attributeName="transform"
        type="translate"
        from="250 0"
        to="0 0"
        dur="2s"
      />
      <animate attributeName="opacity" from="0" to="1" dur="0.5s" />
      <animate
        attributeName="opacity"
        from="1"
        to="0"
        begin="cloud1Move.end - 0.5s"
        dur="0.5s"
        fill="freeze"
      />
      <line
        x1="68.95"
        y1="107.8"
        x2="131.86"
        y2="107.8"
        fill="none"
        stroke="#fff"
        stroke-linecap="round"
        stroke-miterlimit="10"
        stroke-width="2"
      />
      <g>
        <path
          d="M41.77,97.54H77.06a12.4,12.4,0,1,1,24.8,0h17.93"
          fill="none"
          stroke="#fff"
          stroke-linecap="round"
          stroke-miterlimit="10"
          stroke-width="2"
        />
        <animateTransform
          attributeName="transform"
          type="translate"
          from="0 0"
          to="-30 0"
          dur="2s"
        />
      </g>
    </g>
    <g id="cloud2" opacity="0">
      <animateTransform
        id="cloud2Move"
        attributeName="transform"
        type="translate"
        from="50 0"
        to="-100 0"
        dur="1s"
        begin="cloud1Move.end"
      />
      <animate
        attributeName="opacity"
        from="0"
        to="1"
        dur="0.3s"
        begin="cloud1Move.end"
        fill="freeze"
      />
      <animate
        id="cloud2FadeOut"
        attributeName="opacity"
        from="1"
        to="0"
        begin="cloud2Move.end - 0.3s"
        dur="0.3s"
        fill="freeze"
      />
      <line
        x1="258.96"
        y1="93.19"
        x2="298.74"
        y2="93.19"
        fill="none"
        stroke="#fff"
        stroke-linecap="round"
        stroke-miterlimit="10"
        stroke-width="2"
      />
      <g>
        <animateTransform
          attributeName="transform"
          type="translate"
          from="0 0"
          to="-30 0"
          dur="1s"
          begin="cloud1Move.end"
        />
        <path
          d="M278.75,82.91H251.39a12.4,12.4,0,1,0-24.8,0H208.65"
          fill="none"
          stroke="#fff"
          stroke-linecap="round"
          stroke-miterlimit="10"
          stroke-width="2"
        />
        <line
          x1="287.01"
          y1="82.91"
          x2="309.21"
          y2="82.91"
          fill="none"
          stroke="#fff"
          stroke-linecap="round"
          stroke-miterlimit="10"
          stroke-width="2"
        />
      </g>
    </g>

    <line
      x1="106.25"
      y1="179.49"
      x2="84.05"
      y2="179.49"
      fill="none"
      stroke="#fff"
      stroke-linecap="round"
      stroke-miterlimit="10"
      stroke-width="2"
      transform-origin="right"
    >
      <animate
        attributeName="x2"
        values="84.05; 80; 84.05"
        dur="0.3s"
        repeatCount="indefinite"
      />
    </line>
    <line
      x1="106.25"
      y1="201.23"
      x2="84.05"
      y2="201.23"
      fill="none"
      stroke="#fff"
      stroke-linecap="round"
      stroke-miterlimit="10"
      stroke-width="2"
    >
      <animate
        attributeName="x2"
        values="84.05; 80; 84.05"
        begin="0.15s"
        dur="0.3s"
        repeatCount="indefinite"
      />
    </line>
    <line
      x1="106.25"
      y1="190.98"
      x2="68.77"
      y2="190.98"
      fill="none"
      stroke="#fff"
      stroke-linecap="round"
      stroke-miterlimit="10"
      stroke-width="2"
    >
      <animate
        attributeName="x2"
        values="68.77; 62; 68.77"
        dur="0.2s"
        repeatCount="indefinite"
      />
    </line>
  </g>
  <path
    id="window"
    d="M 202.2 231.88 h -2.05 a 3.45 3.45 0 0 0 -3.43 3.45 v 2.92 a 3.45 3.45 0 0 0 3.43 3.45 h 2.05 a 3.45 3.45 0 0 0 3.43 -3.45 v -2.92 a 3.44 3.44 0 0 0 -3.43 -3.45 z"
    fill="none"
    stroke="#fff"
    stroke-linecap="round"
    stroke-linejoin="round"
    stroke-width="2"
    opacity="0"
  >
    <animate
      attributeName="opacity"
      to="1"
      dur="0.1s"
      fill="freeze"
      begin="cloud2FadeOut.begin"
    />
    <animate
      id="windowMove"
      attributeName="d"
      to="M 275,152.42 h-17.2a17.6 17.6 90 00-17.5 17.6v37.9a17.6 17.6 90 0017.6 17.6h17.1a17.6 17.6 90 0017.5-17.6v-37.8a17.6 17.6 90 00-17.5-17.6z"
      dur="0.5s"
      fill="freeze"
      begin="cloud2FadeOut.begin"
    />
  </path>

  <defs>
    <clipPath id="windowClip">
      <path d="M275,225.43H257.87a17.6,17.6,0,0,1-17.52-17.58V170a17.6,17.6,0,0,1,17.52-17.58H275A17.6,17.6,0,0,1,292.51,170v37.83A17.61,17.61,0,0,1,275,225.43Z"/>
    </clipPath>
  </defs>


  <g id="ski" opacity="0">
    <animate
      attributeName="opacity"
      to="1"
      dur="0.3s"
      fill="freeze"
      begin="windowMove.end + 0.15s"
    />
    <animateTransform
      attributeName="transform"
      type="translate"
      values="-80 0; 0 0"
      dur="0.3s"
      fill="freeze"
      begin="windowMove.end + 0.15s"
    />
    <path d="M91.14,327.79a2.2,2.2,0,0,1-2-2.36l13.66-193.17c1.1-15.49-4.8-21.92-8.75-24.47a1.35,1.35,0,0,1,.53-2.45C103,104,122.18,104,120,134.19L106.43,326.67a2.2,2.2,0,0,1-2.35,2Z" fill="#fff"/>
    <path d="M124.5,328.17a2.2,2.2,0,0,1-2.17-2.23l2.24-193.63c0.19-15.53-6.07-21.61-10.16-23.91a1.35,1.35,0,0,1,.39-2.47c8.36-1.9,27.49-3,27.15,27.28l-2.25,192.93a2.2,2.2,0,0,1-2.22,2.18Z" fill="#fff"/>
  </g>
  <g id="cloud3" clip-path="url(#windowClip)">
    <g  opacity="0" transform="translate(270 160)">
      <animate
        attributeName="opacity"
        to="1"
        dur="0.1ms"
        fill="freeze"
        begin="windowMove.end"
      />
      <animateTransform
        id="cloud3Move"
        attributeName="transform"
        type="translate"
        to="-20 160"
        dur="2.5s"
        fill="freeze"
        additive="sum"
        begin="windowMove.end"
      />
      <animate
        attributeName="opacity"
        to="0"
        dur="0.3s"
        fill="freeze"
        begin="cloud3Move.end - 0.3s"
      />
      <line x1="28.18" y1="38.34" x2="91.09" y2="38.34" fill="none" stroke="#fff" stroke-linecap="round" stroke-miterlimit="10" stroke-width="2">
        <animateTransform
          attributeName="transform"
          type="translate"
          to="50 0"
          dur="2s"
          fill="freeze"
          begin="windowMove.end"
        />
      </line>
      <path d="M41.77,97.54H77.06a12.4,12.4,0,1,1,24.8,0h17.93" transform="translate(-40.77 -69.46)" fill="none" stroke="#fff" stroke-linecap="round" stroke-miterlimit="10" stroke-width="2" />
      <line x1="218.19" y1="23.72" x2="257.97" y2="23.72" fill="none" stroke="#fff" stroke-linecap="round" stroke-miterlimit="10" stroke-width="2">
        <animateTransform
          attributeName="transform"
          type="translate"
          to="50 0"
          dur="2s"
          fill="freeze"
          begin="windowMove.end + 1.3s"
        />
      </line>
      <path d="M278.75,82.91H251.39a12.4,12.4,0,1,0-24.8,0H208.65" transform="translate(-40.77 -69.46)" fill="none" stroke="#fff" stroke-linecap="round" stroke-miterlimit="10" stroke-width="2"/>
      <line x1="246.24" y1="13.45" x2="268.43" y2="13.45" fill="none" stroke="#fff" stroke-linecap="round" stroke-miterlimit="10" stroke-width="2"/>
    </g>
  </g>
  <g id="chair" opacity="0">
    <animate
      attributeName="opacity"
      to="1"
      dur="0.3s"
      fill="freeze"
      begin="windowMove.end"
    />
    <animateTransform
      attributeName="transform"
      type="translate"
      values="-80 0; 0 0"
      to="1"
      dur="0.3s"
      fill="freeze"
      begin="windowMove.end"
    />
    <path d="M257.5,259.82H196.76V245.63h55.09a9.92,9.92,0,0,1,9.9,9.93,4.26,4.26,0,0,1-4.25,4.25" fill="#a67ee5"/>
    <path d="M257.5,259.82H196.76V245.63h55.09a9.92,9.92,0,0,1,9.9,9.93A4.26,4.26,0,0,1,257.5,259.82Z" fill="none" stroke="#fff" stroke-miterlimit="10" stroke-width="2"/>
    <polygon points="185.47 328.31 171.5 328.31 165.19 286.72 179.16 286.72 185.47 328.31" fill="#a67ee5"/>
    <polygon points="185.47 328.31 171.5 328.31 165.19 286.72 179.16 286.72 185.47 328.31" fill="none" stroke="#fff" stroke-miterlimit="10" stroke-width="2"/>
    <polygon points="235.03 328.31 221.06 328.31 214.76 286.72 228.72 286.72 235.03 328.31" fill="#a67ee5"/>
    <polygon points="235.03 328.31 221.06 328.31 214.76 286.72 228.72 286.72 235.03 328.31" fill="none" stroke="#fff" stroke-miterlimit="10" stroke-width="2"/>
    <path d="M281.33,272.45H225.44a5.59,5.59,0,0,1-5.53-4.77l-10.86-72.24a17.71,17.71,0,0,0-12.49-31.31H141.48L141.16,267l15.77,23.35,47.19,8.39a12.3,12.3,0,0,0,4.22.75h73a13.53,13.53,0,0,0,0-27.06" fill="#a67ee5"/>
    <path d="M281.33,272.45H225.44a5.59,5.59,0,0,1-5.53-4.77l-10.86-72.24a17.71,17.71,0,0,0-12.49-31.31H141.48L141.16,267l15.77,23.35,47.19,8.39a12.3,12.3,0,0,0,4.22.75h73A13.53,13.53,0,0,0,281.33,272.45Z" fill="none" stroke="#fff" stroke-miterlimit="10" stroke-width="2"/>
    <path d="M162.42,267.69l-10.86-72.24a17.71,17.71,0,1,0-29-13.61,18,18,0,0,0,.79,5.25L138.65,289a12.36,12.36,0,0,0,12.21,10.54h73a13.53,13.53,0,0,0,0-27.05H167.95a5.62,5.62,0,0,1-5.53-4.78" fill="#a67ee5"/>
    <path d="M162.42,267.69l-10.86-72.24a17.71,17.71,0,1,0-29-13.61,18,18,0,0,0,.79,5.25L138.65,289a12.36,12.36,0,0,0,12.21,10.54h73a13.53,13.53,0,0,0,0-27.05H167.95A5.62,5.62,0,0,1,162.42,267.69Z" fill="none" stroke="#fff" stroke-miterlimit="10" stroke-width="2"/>
    <path d="M206.26,259.82h-72l-2.13-14.19H200.6a9.92,9.92,0,0,1,9.9,9.93,4.26,4.26,0,0,1-4.25,4.25" fill="#a67ee5"/>
    <path d="M206.26,259.82h-72l-2.13-14.19H200.6a9.92,9.92,0,0,1,9.9,9.93A4.26,4.26,0,0,1,206.26,259.82Z" fill="none" stroke="#fff" stroke-miterlimit="10" stroke-width="2"/>
    <line x1="151.57" y1="195.44" x2="209.05" y2="195.44" fill="none" stroke="#fff" stroke-linecap="round" stroke-miterlimit="10" stroke-width="2"/>
  </g>

  <g id="leaf" opacity="0" transform="translate(-50 0) rotate(-9)" transform-origin="149.48 328">
    <animate
      attributeName="opacity"
      to="1"
      dur="0.3s"
      fill="freeze"
      begin="windowMove.end"
    />
    <animateTransform
      id="leafMove"
      attributeName="transform"
      type="translate"
      values="-50 0; 0 0"
      dur="0.3s"
      fill="freeze"
      begin="windowMove.end + 0.15s"
    />
    <animateTransform
      attributeName="transform"
      type="rotate"
      values="0; 7; 0; -5; 0; 2; 0;"
      dur="1s"
      fill="freeze"
      additive="sum"
      begin="leafMove.end"
    />
    <path d="M79.18,194A131,131,0,0,1,94.77,220.9a255,255,0,0,1-20.08-23.55,259,259,0,0,1-17.07-25.88A131.72,131.72,0,0,1,79.18,194" fill="#36e69a"/>
    <path d="M80.94,214.39a127.19,127.19,0,0,1,22.8,20.49A242.09,242.09,0,0,1,77.9,219.17a235.86,235.86,0,0,1-23.42-18.7,119.82,119.82,0,0,1,26.46,13.92" fill="#36e69a"/>
    <path d="M93.66,205.48a258.38,258.38,0,0,0,10.08,29.39,125.63,125.63,0,0,0-4.5-30.52,135.9,135.9,0,0,0-12.06-29.44,260.33,260.33,0,0,0,6.47,30.57" fill="#36e69a"/>
    <path d="M107.32,213.52a250.14,250.14,0,0,0,2.06,30.67,119.93,119.93,0,0,0,3.76-30.05,131.24,131.24,0,0,0-4-31.36,238.1,238.1,0,0,0-1.87,30.74" fill="#25b774"/>
    <path d="M83.08,229.56a121.93,121.93,0,0,1,26.29,14.64A225.91,225.91,0,0,1,81.21,235a228.11,228.11,0,0,1-26.37-12.69,113.61,113.61,0,0,1,28.25,7.29" fill="#25b774"/>
    <path d="M88.06,243.83A118.11,118.11,0,0,1,115.62,255a211,211,0,0,1-28.78-5.6,220.87,220.87,0,0,1-27.42-9.33,114,114,0,0,1,28.65,3.73" fill="#25b774"/>
    <path d="M118.71,224.79a238,238,0,0,0-3.1,30.25,117.11,117.11,0,0,0,8.82-28.54,127.44,127.44,0,0,0,1.42-31.19,213.92,213.92,0,0,0-7.15,29.48" fill="#25b774"/>
    <path d="M98.86,262a118.24,118.24,0,0,1,27.07,12.34,212.3,212.3,0,0,1-28.53-6.79,220.78,220.78,0,0,1-27-10.45A114.06,114.06,0,0,1,98.86,262" fill="#068e4d"/>
    <path d="M130.27,244.29a236.56,236.56,0,0,0-4.34,30.1,116.94,116.94,0,0,0,10-28.16,127.42,127.42,0,0,0,2.71-31.1,214.43,214.43,0,0,0-8.36,29.16" fill="#068e4d"/>
    <path d="M108.9,280.69a118.21,118.21,0,0,1,26.54,13.47,213.62,213.62,0,0,1-28.23-8,221.65,221.65,0,0,1-26.55-11.57,113.82,113.82,0,0,1,28.24,6.08" fill="#068e4d"/>
    <path d="M141,264.26a236.09,236.09,0,0,0-5.58,29.9,117.46,117.46,0,0,0,11.15-27.73,127.2,127.2,0,0,0,4-31A214.24,214.24,0,0,0,141,264.26" fill="#068e4d"/>
    <path d="M92.62,217.67A529.26,529.26,0,0,1,149.48,328" fill="none" stroke="#36e69a" stroke-linecap="round" stroke-linejoin="round" stroke-width="2"/>
  </g>
  <g id="mountains">
    <path
      d="M289.94 327.88h-45.06l-32.08-31.3a1.89 1.89 0 00-2.44 0l-10.2 10.23a1.72 1.72 0 01-2.25 0l-19-20.17a2.4 2.4 0 00-3.1 0l-26.42 25.64a1.71 1.71 0 01-2.25 0l-2.63-2.92a1.71 1.71 0 00-2.31 0l-17.57 19.64h-43.85"
      fill="none"
      stroke="#fff"
      stroke-linecap="round"
      stroke-miterlimit="10"
      stroke-width="2"
    >
      <animate
      attributeName="d"
      values="M289.94 327.88h-45.06l-32.08-31.3a1.89 1.89 0 00-2.44 0l-10.2 10.23a1.72 1.72 0 01-2.25 0l-19-20.17a2.4 2.4 0 00-3.1 0l-26.42 25.64a1.71 1.71 0 01-2.25 0l-2.63-2.92a1.71 1.71 0 00-2.31 0l-17.57 19.64h-43.85;
              M 289.94,327.88 h-45.06l-33.88-28.88a0 0 0 000 0l-12 10a0 0 0 010 0l-22-19a0 0 0 000 0l-29 24a0 0 0 010 0l-5-2a0 0 0 000 0l-18.37 17h-43.85;
              M 289.94,327.88 h-44.94l-30-3.88a0 .5 0 00-2-1l-10-2a0 0 0 01-2-1l-19-1a0 0 0 00-11 3l-20 2a0 0 0 01-3 1l-3 1a0 0 0 00-3 0l-17.37 3h-43.85;
              M 289.94,327.88 h-45.06l-29.88-.88a0 0 0 00-2 0l-10 0a0 0 0 01-2 0l-18 0a0 0 0 00-2 0l-30 0a0 0 0 01-3 1l-3 0a0 0 0 00-3 0l-17.37 1h-43.85;
              M 289.94,327.88 h-45.06l-1.88 0a0 0 0 00-35 0l-2 0a0 0 0 01-2.25 0l-3.75 0a0 0 0 00-35 0l-1 0a0 0 0 01-2.25 0l-.75 0a0 0 0 00-19 0l-17.37 0h-43.85"
      dur="0.5s"
      fill="freeze"
      begin="cloud2FadeOut.begin"
      />

    </path>
    <path
      d="M289.94,328H200.15c-0.86,0-1.56,0-2.25,0h-19c-1.5,0-2.23,0-3.1,0h-32.3c-1.09,0-1.66,0-2.31,0H80.78"
      fill="none"
      stroke="#fff"
      stroke-linecap="round"
      stroke-miterlimit="10"
      stroke-width="2"
    />
  </g>
</svg>
